# Blender v2.76 (sub 0) OBJ File: 'FluteRoom.blend'
# www.blender.org
mtllib Plane.001.mtl
o Plane.001
v 0.299794 0.017282 1.814336
v 0.299213 0.547356 1.810810
v 0.915513 0.016963 1.664703
v 2.204403 0.057213 7.014077
v 2.203822 0.587286 7.010552
v 2.680229 0.056659 6.626545
v 0.736202 0.543539 1.164843
v 0.736783 0.013465 1.168369
v 1.635377 0.544747 1.198187
v 1.635959 0.014674 1.201713
v 1.463559 0.541385 0.721046
v 1.464140 0.011312 0.724572
v 2.203377 0.775367 7.009262
v 2.679203 0.774812 6.621730
v 0.914488 0.735116 1.659887
v 1.463115 0.729465 0.719756
v 1.634933 0.732827 1.196897
v 2.144522 0.587453 7.064867
v 0.204387 0.546827 1.766468
v 0.641376 0.543011 1.120501
v 1.444385 0.540759 0.649463
v 1.443940 0.728839 0.648173
v 0.640932 0.731091 1.119211
v 0.203943 0.734908 1.765178
v 2.144078 0.775533 7.063577
v 0.914488 0.735116 1.659887
v 0.300573 0.736931 2.029068
v 0.472084 0.728028 -2.865494
v 1.218435 0.742631 -0.792869
v 1.068870 1.008408 -1.209181
v 0.621059 0.999646 -2.452755
v -0.373872 -0.017054 -2.555615
v 0.927741 1.008591 -1.158362
v 1.077306 0.742815 -0.742050
v 0.479930 0.999829 -2.401936
v 0.330954 0.728211 -2.814674
v 0.395009 0.245767 -2.635050
v 1.014313 0.257885 -0.915240
v 0.052184 0.072548 -0.257457
v 0.308813 0.126537 -0.660264
v -0.310636 0.246683 -2.380954
v 0.308668 0.258801 -0.661144
v -0.310480 0.104633 -2.380010
v -0.310911 0.498118 -2.382627
v 0.394733 0.497202 -2.636723
v 0.331209 0.495959 -2.813130
v 1.014037 0.509319 -0.916912
v 1.077561 0.510562 -0.740505
v -0.374435 0.496875 -2.559033
v 0.308392 0.510235 -0.662816
v 0.371916 0.511478 -0.486409
v -0.310348 -0.015811 -2.379209
v 0.472820 0.056845 -2.861030
v 0.472902 -0.018153 -2.860531
v 0.536309 0.089667 -2.684833
v 0.536426 -0.016910 -2.684124
v 0.052184 0.072548 -0.257457
v 0.372480 -0.002450 -0.482991
v 0.308956 -0.003693 -0.659398
v 1.219171 0.071449 -0.788405
v 1.219254 -0.003550 -0.787907
v 1.155729 -0.004793 -0.964313
v 1.155596 0.116632 -0.965121
v 1.077561 0.510562 -0.740505
v 1.078125 -0.003366 -0.737087
v 0.331773 -0.017970 -2.809711
v 0.412116 0.089828 -2.640112
v -5.664575 -0.042128 -5.400076
v -0.413248 0.060620 9.182896
v -0.350446 -0.036302 -5.400544
v 3.681218 0.042582 5.795414
v -0.354286 3.463618 -5.423821
v 3.677379 3.542502 5.772137
v -0.417087 3.560540 9.159618
v -5.668414 3.457792 -5.423353
v -0.207470 0.398365 -4.814230
v 0.531976 0.412833 -2.760784
v -0.210485 3.146591 -4.832508
v 0.528961 3.161059 -2.779062
v 1.219077 3.209181 -0.862729
v 1.220842 1.600598 -0.852031
v 2.150185 3.227399 1.722962
v 2.151950 1.618816 1.733660
v -0.350446 -0.036302 -5.400544
v -1.664575 -0.042128 -5.400075
v -0.354286 2.963618 -5.423821
v -1.668414 2.957792 -5.423352
v 3.892237 0.710800 -11.227835
v 3.146166 0.709930 -9.155058
v 3.295379 0.978808 -9.569501
v 3.743021 0.979330 -10.813167
v 3.045424 -0.035273 -11.532949
v 3.146167 0.038732 -9.155338
v 3.154243 0.978828 -9.620302
v 3.005029 0.709951 -9.205859
v 3.601886 0.979350 -10.863967
v 3.751101 0.710821 -11.278635
v 3.687602 0.227049 -11.102419
v 3.068531 0.226327 -9.382482
v 3.045424 0.039727 -11.532919
v 2.299352 0.038857 -9.460141
v 2.362853 0.094165 -9.636538
v 2.981922 0.227153 -11.356421
v 2.362852 0.226431 -9.636482
v 2.981924 0.085100 -11.356479
v 2.981922 0.478594 -11.356314
v 3.687601 0.478490 -11.102312
v 3.751102 0.478564 -11.278732
v 3.068530 0.477768 -9.382376
v 3.005030 0.477693 -9.205956
v 3.045423 0.478668 -11.532734
v 2.362851 0.477872 -9.636377
v 2.299351 0.477798 -9.459957
v 2.981925 -0.035347 -11.356529
v 3.892239 0.039602 -11.228116
v 3.892240 -0.035398 -11.228148
v 3.828739 0.071108 -11.051682
v 3.828739 -0.035472 -11.051727
v 2.299352 0.038857 -9.460141
v 2.299353 -0.036143 -9.460172
v 2.362853 -0.036069 -9.636593
v 3.146167 0.038732 -9.155338
v 3.146167 -0.036268 -9.155372
v 3.209667 -0.036194 -9.331791
v 3.209667 0.085233 -9.331739
v 3.005030 0.477693 -9.205956
v 3.005031 -0.036247 -9.206171
v 3.751104 -0.035377 -11.278948
v 3.704539 0.071126 -11.096388
v 2.015128 0.024917 -8.076750
v 2.015128 0.024917 -8.076750
v 2.184492 0.024892 -8.015789
v 2.184491 0.204892 -8.015714
v 1.920331 0.024584 -7.281883
v 1.920330 0.204584 -7.281808
v 1.750968 0.024609 -7.342843
v 1.750967 0.204609 -7.342768
v 2.015128 0.204917 -8.076675
v -0.015214 -0.033226 -14.534491
v -3.232566 -0.036980 -5.595885
v 4.079710 -0.034632 -11.147518
v 2.081566 -0.036963 -5.596173
v 4.079698 3.465368 -11.146051
v 2.081555 3.463037 -5.594707
v -3.232577 3.463020 -5.594419
v -0.015225 3.466774 -14.533024
v 3.295296 0.395134 -9.158935
v 2.556126 0.394271 -7.105338
v 3.295287 3.143422 -9.157784
v 2.556118 3.142560 -7.104187
v -1.732566 -0.036980 -5.595885
v -0.418434 -0.036963 -5.596173
v -0.418445 2.963037 -5.594707
v -1.732576 2.963020 -5.594419
vt 0.000000 0.000000
vt 0.593750 0.000000
vt 0.671875 0.000000
vt 0.671875 0.203125
vt 0.671875 1.000000
vt 0.593750 1.000000
vt 1.000000 0.000000
vt 1.000000 1.000000
vt 0.000000 1.000000
vt 0.703125 1.000000
vt 0.703125 -0.000000
vt 0.671875 0.406250
vt 0.593750 0.406250
vt 0.734375 0.296875
vt 0.703125 0.218750
vt 0.703125 0.950194
vt 0.703125 0.203125
vt 0.703125 0.406250
vt 0.734375 0.000000
vt 0.734375 1.000000
vt 0.593750 0.203125
vt 0.625000 0.000000
vt 0.109375 0.984375
vt 0.257812 0.984375
vt 0.257812 0.937500
vt 0.296875 0.937500
vt 0.296875 0.984375
vt 0.273438 0.937500
vt 0.250000 0.937500
vt 0.250000 0.984375
vt 0.328125 0.750000
vt 0.296875 0.968750
vt 0.109375 0.968750
vt 0.031250 0.859375
vt 0.062500 0.859375
vt 0.046875 0.859375
vt 0.046875 0.593750
vt 0.046875 0.750000
vt 0.007812 0.750000
vt 0.382812 0.593750
vt 0.382812 0.750000
vt 0.343750 0.750000
vt 0.343750 0.593750
vt 0.226562 0.656250
vt 0.265625 0.656250
vt 0.265625 0.796875
vt 0.343750 0.718750
vt 0.007812 0.593750
vt 0.046875 0.671875
vt 0.046875 0.609375
vt 0.343750 0.609375
vt 0.343750 0.687500
vt 0.070312 0.750000
vt 0.132812 0.984375
vt 0.132812 0.937500
vt 0.156250 0.937500
vt 0.148438 0.984375
vt 0.125000 0.984375
vt 0.125000 0.937500
vt 0.062500 0.750000
vt 0.281250 0.687500
vt 0.289062 0.687500
vt 0.289062 0.750000
vt 0.281250 0.750000
vt 0.992188 0.015625
vt 0.992188 0.640625
vt 0.750000 0.640625
vt 0.398438 0.671875
vt 0.398438 0.015625
vt 0.585938 0.015625
vt 0.273438 0.984375
vt 0.156250 0.984375
vt 0.492188 0.937500
vt 0.492188 0.984375
vt 0.406250 0.984375
vt 0.406250 0.937500
vt 0.406250 0.906250
vt 0.406250 0.859375
vt 0.429688 0.859375
vt 0.429688 0.906250
vt 0.015625 0.015625
vt 0.312500 0.015625
vt 0.312500 0.546875
vt 0.734375 0.343750
vt 0.703125 0.343750
vt 0.109375 0.937500
vt 0.054688 0.859375
vt 0.070312 0.812500
vt 0.054688 0.812500
vt 0.359375 0.859375
vt 0.328125 0.812500
vt 0.359375 0.812500
vt 0.039062 0.859375
vt 0.031250 0.828125
vt 0.062500 0.828125
vt 0.070312 0.859375
vt 0.226562 0.796875
vt 0.343750 0.671875
vt 0.054688 0.687500
vt 0.148438 0.937500
vt 0.750000 0.015625
vt 0.585938 0.671875
vt 0.015625 0.546875
vn -0.940900 0.001200 0.338800
vn -0.986700 -0.000000 0.162700
vn -0.940900 0.000100 -0.338700
vn 0.940900 -0.001200 -0.338800
vn 0.940900 -0.000100 0.338700
vn 0.000000 0.000000 1.000000
vn 0.000100 0.000700 1.000000
vn -0.637500 -0.005800 -0.770500
vn 0.000000 0.007800 1.000000
vn -0.637400 -0.000300 0.770600
vn 0.000100 0.000400 -1.000000
vn 0.000000 0.998300 0.058400
vn 0.000000 0.000500 -1.000000
vn -0.000100 0.000300 -1.000000
vn 0.944700 -0.001300 -0.328000
vn -0.936200 -0.000200 0.351500
vn 0.000000 -0.999500 -0.030500
vn 0.000400 0.000000 1.000000
vn 0.000000 -0.080200 -0.996800
vn 0.000800 0.006700 1.000000
vn 0.000000 -0.998300 -0.058100
vn -0.000100 0.000400 -1.000000
vn -0.000200 -0.000700 -1.000000
vn 0.936300 0.000200 -0.351200
vn -0.944600 0.001300 0.328300
vn 0.004400 -1.000000 0.001700
vn 0.000000 -1.000000 -0.000400
vn 0.001100 -1.000000 0.006700
vn -0.828300 -0.004600 -0.560300
vn -0.939000 0.001300 0.343900
vn 0.940900 -0.000100 -0.338800
vn 0.965900 0.000500 -0.258700
vn 0.942200 -0.000900 -0.335100
vn -0.520900 -0.006200 -0.853600
vn -0.001200 1.000000 -0.006800
vn -0.939000 0.000100 0.343800
vn -0.506000 -0.007100 -0.862500
vn -0.828300 -0.005800 -0.560300
vn 0.003200 -1.000000 0.006500
vn 0.001900 -1.000000 0.007900
vn 0.002100 -1.000000 0.007400
vn -0.003800 1.000000 -0.006300
vn 0.540500 0.006400 0.841300
vn -0.177300 0.850300 -0.495600
vn -0.001100 1.000000 -0.006700
vn 0.175500 0.857200 0.484200
vn 0.338800 0.006600 0.940800
vn -0.338800 -0.006600 -0.940800
vn -0.010600 -0.999800 0.019500
vn 0.176300 0.854000 -0.489600
vn -0.000000 1.000000 0.000400
vn -0.176300 0.853500 0.490300
vn -0.338700 -0.000400 0.940900
vn 0.338700 0.000400 -0.940900
vn -0.017200 -0.999800 0.002000
vn -0.001300 1.000000 -0.006800
vn -0.001400 1.000000 -0.007200
vn 0.002400 -1.000000 0.006800
vn 0.002000 -1.000000 0.008200
vn -0.001500 1.000000 -0.007500
vn 0.540600 0.006200 0.841200
vn 0.540600 0.007000 0.841200
vn -0.006300 -0.999900 0.015000
vn 0.176300 0.854000 -0.489500
vn -0.011000 -0.999900 0.001300
vn -0.000000 0.999700 0.026300
vn -0.004400 1.000000 -0.001800
usemtl Material.002
s off
f 72/1/1 70/1/1 71/1/1
f 70/1/2 72/1/2 86/1/2
f 143/1/3 141/1/3 142/1/3
f 69/1/4 68/1/4 75/1/4
f 139/1/5 146/1/5 145/1/5
f 73/1/1 72/1/1 71/1/1
f 84/1/6 70/1/6 86/1/6
f 144/1/3 143/1/3 142/1/3
f 74/1/4 69/1/4 75/1/4
f 140/1/5 139/1/5 145/1/5
usemtl Material.003
f 72/1/7 75/1/7 87/1/7
f 73/1/8 71/1/8 69/1/8
f 68/1/6 70/1/6 84/1/6
f 68/1/9 85/1/9 87/1/9
f 141/1/10 143/1/10 146/1/10
f 140/1/11 145/1/11 154/1/11
f 142/1/12 140/1/12 151/1/12
f 142/1/13 152/1/13 153/1/13
f 145/1/14 144/1/14 153/1/14
f 87/1/15 85/1/15 151/1/15
f 86/1/16 153/1/16 152/1/16
f 87/1/17 154/1/17 153/1/17
f 86/1/18 72/1/18 87/1/18
f 74/1/8 73/1/8 69/1/8
f 85/1/19 68/1/19 84/1/19
f 75/1/20 68/1/20 87/1/20
f 139/1/10 141/1/10 146/1/10
f 151/1/13 140/1/13 154/1/13
f 152/1/21 142/1/21 151/1/21
f 144/1/22 142/1/22 153/1/22
f 154/1/23 145/1/23 153/1/23
f 154/1/24 87/1/24 151/1/24
f 84/1/25 86/1/25 152/1/25
f 86/1/26 87/1/26 153/1/26
usemtl Material
f 143/1/27 144/1/27 145/1/27
f 72/1/28 73/1/28 74/1/28
f 146/1/27 143/1/27 145/1/27
f 75/1/28 72/1/28 74/1/28
usemtl Material.004
f 1/2/29 2/3/29 7/4/29
f 2/5/30 1/6/30 4/2/30
f 11/7/31 16/8/31 17/9/31
f 11/7/32 21/8/32 22/9/32
f 15/10/33 14/11/33 6/2/33
f 9/1/4 10/7/4 12/8/4
f 7/4/34 11/12/34 12/13/34
f 23/14/35 15/15/35 17/11/35
f 18/3/36 27/16/36 19/5/36
f 20/4/37 23/17/37 22/18/37
f 19/3/38 24/11/38 23/17/38
f 2/1/39 5/7/39 18/8/39
f 7/7/40 20/8/40 21/9/40
f 2/7/41 19/8/41 20/9/41
f 27/19/42 25/20/42 14/10/42
f 15/17/43 3/21/43 9/22/43
f 31/23/44 28/24/44 36/25/44
f 31/26/45 35/27/45 33/23/45
f 29/28/46 30/29/46 33/30/46
f 38/31/1 33/32/1 35/33/1
f 63/34/4 55/35/4 31/36/4
f 46/37/45 49/38/45 44/39/45
f 47/40/45 50/41/45 51/42/45
f 52/42/45 56/43/45 54/40/45
f 58/44/28 59/45/28 62/46/28
f 58/40/1 51/41/1 42/47/1
f 49/39/1 32/48/1 52/37/1
f 41/49/1 43/50/1 40/51/1
f 37/52/45 41/31/45 42/53/45
f 65/54/47 61/55/47 29/56/47
f 66/57/48 36/58/48 28/59/48
f 56/60/47 55/60/47 67/60/47
f 43/61/49 55/62/49 63/62/49
f 65/41/47 64/42/47 51/43/47
f 46/38/48 66/39/48 32/48/48
f 63/63/48 59/64/48 47/63/48
f 77/65/1 79/66/1 78/67/1
f 81/68/1 83/69/1 82/70/1
f 91/23/50 88/24/50 97/25/50
f 91/26/51 96/27/51 94/23/51
f 90/29/52 94/30/52 95/71/52
f 99/31/3 94/32/3 96/33/3
f 125/34/5 117/35/5 91/36/5
f 107/48/51 108/37/51 111/38/51
f 109/40/51 112/41/51 113/42/51
f 114/42/51 118/43/51 116/40/51
f 120/44/27 121/45/27 124/46/27
f 120/40/3 113/41/3 104/47/3
f 111/39/3 92/48/3 114/37/3
f 103/49/3 105/50/3 102/51/3
f 98/52/51 103/31/51 104/53/51
f 95/72/53 127/54/53 123/55/53
f 128/57/54 97/58/54 88/59/54
f 118/60/53 117/60/53 129/60/53
f 105/61/55 117/62/55 125/62/55
f 120/40/53 127/41/53 126/42/53
f 111/37/54 108/38/54 128/39/54
f 125/63/54 121/64/54 109/63/54
f 135/73/5 134/74/5 132/75/5
f 137/75/51 135/76/51 133/73/51
f 131/77/54 138/78/54 133/79/54
f 132/76/27 134/73/27 136/74/27
f 137/78/53 136/79/53 134/80/53
f 137/76/3 138/73/3 131/74/3
f 148/81/3 150/82/3 149/83/3
f 8/21/29 1/2/29 7/4/29
f 5/3/30 2/5/30 4/2/30
f 9/1/31 11/7/31 17/9/31
f 16/1/32 11/7/32 22/9/32
f 3/6/33 15/10/33 6/2/33
f 11/9/4 9/1/4 12/8/4
f 8/21/34 7/4/34 12/13/34
f 17/11/35 22/19/35 23/14/35
f 23/14/56 24/84/56 15/15/56
f 27/85/57 15/15/57 24/84/57
f 24/10/36 19/5/36 27/16/36
f 18/3/36 25/11/36 27/16/36
f 21/12/37 20/4/37 22/18/37
f 20/4/38 19/3/38 23/17/38
f 19/9/58 2/1/58 18/8/58
f 11/1/59 7/7/59 21/9/59
f 7/1/41 2/7/41 20/9/41
f 15/11/60 27/19/60 14/10/60
f 10/2/61 9/22/61 3/21/61
f 17/11/62 15/17/62 9/22/62
f 35/86/44 31/23/44 36/25/44
f 30/86/45 31/26/45 33/23/45
f 34/71/46 29/28/46 33/30/46
f 35/33/1 36/87/1 45/88/1
f 45/88/1 37/53/1 35/33/1
f 36/87/1 46/89/1 45/88/1
f 34/90/1 33/32/1 47/91/1
f 47/91/1 48/92/1 34/90/1
f 37/53/1 38/31/1 35/33/1
f 33/32/1 38/31/1 47/91/1
f 31/36/4 30/93/4 63/34/4
f 29/34/4 61/94/4 63/34/4
f 55/35/4 56/95/4 54/96/4
f 61/94/4 62/94/4 63/34/4
f 55/35/4 54/96/4 28/35/4
f 29/34/4 63/34/4 30/93/4
f 28/35/4 31/36/4 55/35/4
f 45/48/45 46/37/45 44/39/45
f 48/43/45 47/40/45 51/42/45
f 32/41/45 52/42/45 54/40/45
f 61/97/28 58/44/28 62/46/28
f 42/47/1 40/52/1 58/40/1
f 59/43/1 58/40/1 40/52/1
f 51/41/1 50/42/1 42/47/1
f 44/38/1 49/39/1 52/37/1
f 42/98/1 41/49/1 40/51/1
f 38/99/45 37/52/45 42/53/45
f 34/72/47 65/54/47 29/56/47
f 54/100/48 66/57/48 28/59/48
f 45/60/47 44/38/47 67/60/47
f 52/38/47 56/60/47 67/60/47
f 67/60/47 44/38/47 52/38/47
f 40/61/63 43/61/63 63/62/63
f 58/40/47 65/41/47 51/43/47
f 49/37/48 46/38/48 32/48/48
f 50/63/48 47/63/48 59/64/48
f 63/63/48 62/64/48 59/64/48
f 76/101/1 77/65/1 78/67/1
f 80/102/1 81/68/1 82/70/1
f 96/86/64 91/23/64 97/25/64
f 90/86/51 91/26/51 94/23/51
f 89/28/52 90/29/52 95/71/52
f 96/33/3 97/87/3 107/88/3
f 107/88/3 98/53/3 96/33/3
f 97/87/3 108/89/3 107/88/3
f 95/90/3 94/32/3 109/91/3
f 109/91/3 110/92/3 95/90/3
f 98/53/3 99/31/3 96/33/3
f 94/32/3 99/31/3 109/91/3
f 91/36/5 90/93/5 125/34/5
f 89/34/5 123/94/5 125/34/5
f 117/35/5 118/95/5 116/96/5
f 123/94/5 124/94/5 125/34/5
f 117/35/5 116/96/5 88/35/5
f 89/34/5 125/34/5 90/93/5
f 88/35/5 91/36/5 117/35/5
f 106/39/51 107/48/51 111/38/51
f 110/43/51 109/40/51 113/42/51
f 92/41/51 114/42/51 116/40/51
f 123/97/27 120/44/27 124/46/27
f 104/47/3 102/52/3 120/40/3
f 121/43/3 120/40/3 102/52/3
f 113/41/3 112/42/3 104/47/3
f 106/38/3 111/39/3 114/37/3
f 104/98/3 103/49/3 102/51/3
f 99/99/51 98/52/51 104/53/51
f 89/56/53 95/72/53 123/55/53
f 116/100/54 128/57/54 88/59/54
f 107/60/53 106/38/53 129/60/53
f 114/38/53 118/60/53 129/60/53
f 129/60/53 106/38/53 114/38/53
f 102/61/65 105/61/65 125/62/65
f 113/43/53 120/40/53 126/42/53
f 92/48/54 111/37/54 128/39/54
f 112/63/54 109/63/54 121/64/54
f 125/63/54 124/64/54 121/64/54
f 133/76/5 135/73/5 132/75/5
f 138/74/51 137/75/51 133/73/51
f 132/80/54 131/77/54 133/79/54
f 131/75/27 132/76/27 136/74/27
f 135/77/53 137/78/53 134/80/53
f 136/75/3 137/76/3 131/74/3
f 147/103/3 148/81/3 149/83/3
usemtl Material.008
f 69/1/45 71/1/45 70/1/45
f 140/1/51 142/1/51 141/1/51
f 152/1/66 151/1/66 85/1/66
f 68/1/45 69/1/45 70/1/45
f 139/1/51 140/1/51 141/1/51
f 84/1/67 152/1/67 85/1/67
l 14 13
l 13 25
l 15 26
l 29 60
l 28 53
l 41 44
l 43 52
l 53 54
l 39 57
l 60 61
l 48 64
l 100 111
l 89 122
l 93 89
l 101 113
l 88 115
l 103 106
l 100 92
l 105 114
l 115 116
l 101 119
l 119 120
l 122 123
l 110 126
l 130 131
