# Blender v2.76 (sub 0) OBJ File: "Pearl's Arena.blend"
# www.blender.org
mtllib Cloud.001.mtl
o Cloud.001
v 10.405750 -3.848685 9.860177
v 9.653995 -4.251745 14.903479
v 6.673010 -3.605448 16.012598
v 11.012088 -2.874882 11.932277
v 9.864628 -4.061281 12.706220
v 10.795074 -3.352877 14.525528
v 3.114650 -3.094196 16.915972
v 4.216972 -4.058014 16.102882
v 1.177835 -4.360047 16.487774
v 7.888153 -2.759611 17.680943
v 5.274068 -2.686078 17.809525
v 17.245653 -1.566714 15.287327
v 12.074548 -2.546933 17.223675
v 15.935011 -0.778552 20.494341
v 9.401320 -3.267172 16.094103
v 13.363213 -1.564339 19.779713
v 11.864573 -1.314591 21.485424
v 13.765440 -2.107420 11.086823
v 12.014317 -2.815476 9.712341
v 11.034004 -2.955400 9.094001
v 9.520025 -3.574100 5.365799
v 10.456640 -3.420780 7.262093
v 9.565644 -2.913712 5.102683
v 15.300448 -1.613874 6.245463
v 15.511199 0.293439 2.561044
v 12.225506 -2.103608 3.341865
v 9.403723 2.638942 24.703962
v 12.233861 1.327446 24.055815
v 9.259873 0.292153 24.885242
v 10.605573 5.626614 25.715248
v 5.736788 3.648976 24.416889
v 4.896095 6.802164 26.833700
v 6.901481 6.611895 29.226780
v 18.654600 3.971163 23.605856
v 17.506670 4.829559 24.283676
v 18.567835 4.804213 24.017717
v 17.853456 2.761459 30.826939
v 15.067990 6.729026 28.709936
v 11.029130 3.920994 31.625240
v 17.656450 6.208000 26.403973
v 19.527969 4.739971 27.650166
v 19.381401 4.812894 24.779600
v 19.068306 2.654667 21.350927
v 20.415438 3.663754 23.355110
v 22.219481 3.159505 20.827560
v 21.076746 2.166306 16.660055
v 22.304379 5.289646 2.028051
v 25.837440 7.310287 -0.157249
v 22.811708 7.556824 -1.291387
v 17.229767 0.309009 4.451481
v 18.016047 2.794473 3.215198
v 15.528606 3.347486 1.548158
v 12.561911 2.546101 0.840417
v 27.246891 2.596708 18.285910
v 29.511557 0.382598 18.458874
v 29.259619 3.102839 15.846911
v 25.275997 1.150772 21.783836
v 31.224600 -0.014208 14.215330
v 30.529051 -1.894291 7.737899
v 23.925758 3.031355 18.508402
v 23.408676 3.385935 16.980349
v 21.349432 2.243915 6.317092
v 23.464735 2.870418 11.049605
v 25.238832 3.978457 6.043930
v 29.250433 4.281722 4.477763
v 29.095625 4.822118 10.713377
v 25.517477 2.714569 18.639254
v 25.409372 3.531053 15.836485
v 19.684141 -0.448123 10.364264
v -1.399511 -2.871932 16.046400
v 0.291993 -4.392359 15.805387
v -1.555632 -2.958031 13.488353
v 2.938226 -3.325041 17.426733
v -0.519841 -4.501095 13.874641
v -8.968901 6.069748 28.228428
v -9.767729 6.777399 23.851974
v -2.951251 -2.020772 13.621675
v -2.950997 -2.422806 12.964994
v -3.086274 -2.154955 10.619565
v -1.264085 -3.598198 11.519078
v 3.020626 -2.078380 18.474762
v 1.249743 -0.147164 20.605932
v 6.267038 3.388962 31.888226
v -8.960397 2.656188 31.042065
v 5.676899 -2.814416 19.811695
v 8.633163 -3.038071 18.943356
v 1.717646 6.713133 29.636662
v 3.786260 6.984896 28.931047
v 1.929402 6.928023 26.382847
v 10.127260 -4.124964 7.648209
v 11.844316 -2.759618 6.853230
v 26.629904 6.603702 2.400227
v 26.098927 0.814138 -2.318212
v 18.114550 5.850688 28.957195
v 20.919207 1.924166 26.029612
v 22.410797 2.662006 23.165123
v 16.398905 2.671811 23.331848
v 14.701237 5.018443 24.800486
v 10.887917 0.192965 24.639124
v 9.541934 -1.976173 4.031552
v 9.451625 -2.882619 6.629456
v 11.060416 -4.218677 5.823484
v 7.574019 -1.299268 2.776289
v 16.874729 7.329011 -1.953860
v -2.830384 2.243270 -8.768112
v 8.684563 -2.947526 4.592378
v 13.110289 -0.090433 1.961519
v 23.725723 7.645925 -4.778653
v 25.753233 6.653258 -2.570574
v 20.617727 4.757249 -10.346934
v 19.161278 -0.306636 5.456543
v 19.487736 4.315807 23.830540
v 6.276728 -1.545801 23.102032
v -0.507346 6.803862 29.026995
v -2.844694 6.842830 25.988918
v -0.108649 3.614479 23.644882
v -2.850994 1.642601 21.065559
v -3.469695 4.266553 22.632065
v -6.008638 5.883804 22.914753
v -6.735758 7.082819 26.005497
v -5.839775 3.444432 20.176565
v -2.533300 -0.025456 19.893412
v -8.179125 5.234855 29.806238
v -2.155461 -0.693862 18.326857
v -6.141213 2.395063 16.575891
v 0.634832 -2.359916 18.722866
v -4.243673 -0.989538 13.635558
v 10.848645 -0.523973 1.817166
v 9.015408 -2.834500 20.873505
v 9.502499 -1.814971 23.292131
v -14.578994 6.259113 22.882524
v -14.806305 8.196101 16.025196
v -1.481601 -4.509032 9.651262
v -3.077461 -1.575564 6.998101
v -2.640269 -2.806378 8.043216
v -6.847528 0.363119 8.291822
v -12.251753 4.066689 12.011415
v -6.816196 0.736700 12.652368
v -11.882545 4.690247 5.026497
v -11.756527 4.876865 7.709972
v -1.664406 -2.545854 8.188623
v -16.280037 7.039302 10.448638
v -13.777695 6.576939 11.830700
v 10.170317 11.213492 -7.329389
v 6.336943 6.635969 -7.642822
v 9.484306 5.415262 -3.018372
v -1.469390 -3.138578 6.154087
v -3.621819 -0.845311 0.698938
v 5.968748 -3.851897 6.181586
v 7.551752 -3.299932 5.582697
v 14.091251 3.806802 -10.618315
v 10.040054 2.763313 -10.362864
v 2.787726 -4.907948 7.214663
v 6.567122 -2.900535 6.082521
v 7.166868 -2.469987 5.655875
v 6.622392 8.008801 -11.951996
v 8.398418 8.721103 -9.645378
v 2.958436 4.627105 -2.658634
v 5.524159 0.750602 -12.231605
v -5.249481 7.187531 -9.963908
v -2.106665 5.720649 -11.765073
v 0.017185 6.434196 -10.424675
v -2.443100 6.739203 -8.395679
v 1.204034 5.851401 -7.474490
v -2.330819 5.307644 -5.037705
v -2.745267 2.007685 -2.374414
v 2.576895 0.154837 1.370166
v -6.122554 7.784427 -6.421289
v -7.126816 8.587860 -8.423521
v 2.755303 7.302329 -10.797358
v 0.283977 -4.183943 5.806914
v -7.978776 3.202424 1.390834
v -6.086772 3.402355 -1.094759
v -7.450649 5.426258 -0.187024
v 3.275891 -2.419555 6.365769
v -4.293373 -0.962941 -1.739264
v -7.594887 1.430921 -2.278987
v -6.993789 1.780213 2.889659
v -13.185206 5.678759 9.468682
v -12.149125 3.769920 9.231871
v -1.046186 -1.048543 4.571623
v -5.638984 -1.182013 7.639971
v -7.576818 0.598212 -0.959482
v -4.964242 -1.003327 -0.882664
v -6.374586 5.553997 -2.810974
v -14.737775 6.344390 6.034198
v -9.514275 3.788575 3.812710
v 8.150787 -2.442090 5.908670
v 5.503786 -2.124988 5.691237
v 8.733484 -2.785226 6.046917
v -10.573521 8.913761 -3.802658
v -9.508705 7.066855 -8.575846
v -13.728314 8.468472 0.659674
v -11.103674 8.509093 -2.355167
v -8.961886 7.871012 -0.385163
v -7.960976 4.467201 0.454460
v 7.643841 1.609768 0.009771
v 15.727091 8.747034 -10.407554
v -9.827369 7.300323 2.326043
v -8.248750 6.879188 -1.018335
v -9.406434 4.714976 -3.808063
v -10.112790 0.573501 0.679907
v -12.903187 7.140737 3.677887
v -9.097404 6.466877 1.651579
v -15.157327 5.549760 0.510082
v -11.557898 5.371284 20.088156
v -8.521727 4.680399 20.786989
v 10.889551 -0.605756 23.981277
vn -0.544300 0.838300 -0.030400
vn -0.668900 0.743300 -0.007500
vn -0.636900 0.763200 -0.109500
vn -0.626200 0.720400 -0.298200
vn -0.812300 0.582300 0.032200
vn -0.359400 0.766800 -0.531900
vn -0.136000 0.543300 -0.828400
vn 0.451200 -0.094600 -0.887400
vn -0.009000 0.990500 -0.137100
vn -0.076000 0.887200 -0.455100
vn 0.078400 0.953700 -0.290400
vn -0.414700 0.903600 -0.107000
vn -0.228600 0.964700 -0.131100
vn -0.391700 0.803900 -0.447600
vn -0.165600 0.892600 -0.419400
vn -0.193400 0.940000 -0.281100
vn -0.390100 0.831700 -0.395000
vn -0.280600 0.959800 0.006200
vn -0.248000 0.968600 -0.017000
vn -0.499000 0.866600 -0.004100
vn -0.865200 0.058400 0.498000
vn -0.733500 0.647500 0.206800
vn -0.127000 0.242200 0.961900
vn -0.358100 0.901300 0.243600
vn -0.447700 0.550900 0.704300
vn -0.132500 0.845000 0.518200
vn -0.026500 0.119600 -0.992500
vn -0.350300 0.362500 -0.863600
vn -0.012900 0.260700 -0.965300
vn -0.158400 0.783300 -0.601200
vn 0.223000 0.484500 -0.845900
vn 0.270700 0.885600 -0.377300
vn 0.150600 0.908500 -0.389800
vn -0.045100 0.675800 -0.735700
vn -0.069500 0.727700 -0.682400
vn 0.175700 0.740800 -0.648300
vn 0.492100 0.434900 0.754100
vn 0.004300 0.967300 0.253600
vn -0.138200 0.809000 0.571300
vn 0.265900 0.929700 -0.254900
vn 0.815500 0.531100 0.230100
vn 0.481100 0.827900 -0.288400
vn -0.316800 0.840300 -0.440000
vn 0.335600 0.916900 -0.216000
vn 0.157700 0.987300 -0.020200
vn -0.472200 0.864500 -0.172500
vn -0.245400 0.820100 0.516900
vn 0.508700 0.856000 0.092300
vn 0.052100 0.977100 0.206400
vn -0.362400 0.663200 0.654800
vn -0.428100 0.557500 0.711300
vn -0.366300 0.501500 0.783800
vn -0.260900 0.498500 0.826700
vn 0.309700 0.837700 0.449800
vn 0.720500 0.566300 0.400300
vn 0.555400 0.749000 0.361300
vn 0.904500 0.405800 0.131400
vn 0.029900 0.968400 0.247600
vn -0.285200 0.958300 0.020200
vn -0.557100 0.742500 0.371800
vn -0.452200 0.891400 0.030100
vn -0.224300 0.928600 0.295600
vn 0.758500 0.641600 -0.114500
vn 0.406800 0.912000 0.052900
vn 0.968400 0.201300 -0.147400
vn 0.385500 0.886700 0.255100
vn 0.145200 0.920700 0.362200
vn -0.056900 0.992100 0.111700
vn -0.533400 0.845500 0.022300
vn 0.531400 0.775000 -0.342100
vn 0.531100 0.560000 -0.635900
vn 0.639100 0.751600 -0.163500
vn -0.537600 0.752900 -0.379700
vn 0.528000 0.770700 -0.356700
vn 0.760500 0.643100 -0.089600
vn 0.824600 0.525800 -0.208700
vn 0.001300 0.825700 -0.564100
vn 0.225700 0.655500 -0.720700
vn 0.208500 0.964500 -0.161800
vn -0.008800 0.998800 0.047600
vn -0.039700 0.997600 0.056500
vn -0.002700 1.000000 -0.008600
vn 0.038700 0.931800 -0.360800
vn -0.942100 0.334000 0.030900
vn -0.303800 0.938900 0.162000
vn 0.394000 0.898500 0.193500
vn 0.927700 0.095300 -0.360900
vn 0.503400 0.741500 0.443500
vn 0.800300 0.549800 0.239500
vn 0.504600 0.808500 0.303000
vn -0.299000 0.560300 -0.772400
vn -0.129900 0.677300 -0.724200
vn -0.344600 0.315300 -0.884200
vn 0.083400 0.879600 0.468400
vn 0.260900 -0.224900 0.938800
vn -0.358400 -0.924300 -0.131400
vn 0.055600 0.822400 0.566100
vn -0.132300 0.884200 0.448000
vn -0.225400 0.486700 0.844000
vn 0.456700 0.800500 -0.388100
vn 0.724200 0.629400 -0.281800
vn 0.458100 0.706500 -0.539500
vn -0.475300 0.706000 0.525000
vn 0.050600 0.800800 -0.596800
vn 0.290400 0.684400 -0.668800
vn 0.132800 0.844900 -0.518200
vn 0.023400 0.999000 0.038800
vn 0.188500 0.636000 -0.748300
vn 0.431200 0.622900 -0.652700
vn 0.390600 0.642600 -0.659200
vn 0.206300 0.825700 -0.525000
vn 0.430400 0.769300 -0.472200
vn 0.789100 0.509800 -0.342600
vn 0.091600 0.932900 -0.348300
vn 0.611900 0.712800 -0.342800
vn 0.565700 0.758000 -0.324800
vn 0.112600 0.893600 -0.434600
vn 0.187200 0.774800 -0.603900
vn 0.573000 0.819400 0.016700
vn 0.496200 0.867800 -0.027000
vn -0.056800 0.617500 0.784500
vn -0.124900 0.956600 -0.263200
vn -0.170700 0.801800 -0.572700
vn 0.447200 0.756800 0.476700
vn 0.370300 0.927900 -0.042900
vn 0.568200 0.817400 0.095200
vn 0.697000 0.699300 -0.158700
vn 0.568000 0.787400 -0.239600
vn 0.576300 0.708800 0.406700
vn 0.617300 0.759800 0.204100
vn 0.488700 0.842400 0.227100
vn 0.395400 0.907200 -0.143500
vn 0.622000 0.781200 -0.052700
vn 0.627700 0.766100 -0.138200
vn -0.186400 0.858800 0.477200
vn -0.375900 0.878200 0.295800
vn -0.271000 0.696300 0.664700
vn 0.228200 0.219500 0.948500
vn 0.350100 -0.292800 0.889800
vn 0.167600 0.610100 0.774400
vn -0.113500 0.814500 0.568900
vn -0.012900 0.635500 -0.772000
vn -0.382100 0.677200 -0.628800
vn -0.476500 -0.396800 -0.784500
vn 0.199300 0.979400 0.031200
vn -0.028700 0.959400 0.280500
vn 0.191200 0.830300 0.523400
vn 0.076600 0.588600 0.804800
vn -0.075400 0.804300 0.589500
vn 0.259200 0.937900 0.230300
vn -0.075800 0.988300 -0.132700
vn -0.126000 0.938700 0.320900
vn -0.141000 0.989900 0.016600
vn 0.879300 0.417800 0.228700
vn 0.981300 0.176200 0.077000
vn 0.431400 -0.104000 0.896100
vn 0.681900 0.333200 0.651100
vn 0.798700 0.383100 0.464000
vn -0.350800 0.787200 0.507200
vn -0.146500 0.793400 0.590700
vn 0.006300 0.361600 0.932300
vn 0.046200 0.599000 0.799400
vn 0.524000 0.837700 -0.154200
vn 0.793700 0.575800 -0.196300
vn 0.650600 0.750600 0.115600
vn 0.670900 0.740900 0.030600
vn 0.720200 0.639200 0.269500
vn 0.699100 0.714000 0.038800
vn -0.080600 -0.676000 0.732500
vn -0.118000 0.365400 0.923300
vn 0.602400 0.654500 0.456900
vn -0.310500 0.908100 0.280800
vn -0.693900 0.718100 0.052700
vn 0.652600 0.609500 0.450100
vn 0.630300 0.732100 -0.258400
vn 0.025400 0.690300 0.723100
vn 0.104500 0.690600 0.715600
vn 0.176300 0.250000 0.952100
vn -0.161900 -0.118300 0.979700
vn 0.265900 0.954500 0.134600
vn 0.402400 0.829600 0.387000
vn 0.944500 0.314800 0.093600
vn -0.260000 0.812900 -0.521100
vn 0.321200 0.854400 0.408400
vn 0.005700 -0.910600 0.413100
vn -0.076600 0.635300 0.768400
vn 0.444500 0.881000 0.161900
vn 0.504200 0.844100 0.182600
vn 0.537700 0.689100 0.485900
vn 0.858600 0.491300 -0.146300
vn 0.210100 0.942700 0.259100
vn 0.500700 0.862800 -0.069900
vn 0.257600 -0.335300 0.906200
vn 0.321800 0.708600 0.627900
vn 0.877400 0.289800 -0.382200
vn 0.376000 0.454000 0.807800
vn -0.087600 0.449400 0.889000
vn 0.359000 0.924000 -0.131900
vn 0.237900 0.967500 -0.086000
vn 0.231900 0.855000 -0.463900
vn -0.436700 0.637500 -0.634700
usemtl (null).001
s 1
f 4//1 5//2 6//3
f 2//4 6//3 5//2
f 1//5 5//2 4//1
f 7//6 8//7 9//8
f 10//9 3//10 11//11
f 12//12 13//13 14//14
f 15//15 10//9 13//13
f 10//9 15//15 3//10
f 4//1 6//3 13//13
f 2//4 15//15 6//3
f 6//3 15//15 13//13
f 14//14 16//16 17//17
f 4//1 13//13 18//18
f 4//1 19//19 20//20
f 21//21 22//22 23//23
f 24//24 25//25 26//26
f 4//1 20//20 1//5
f 13//13 12//12 18//18
f 27//27 28//28 29//29
f 27//27 30//30 28//28
f 31//31 32//32 33//33
f 28//28 14//14 17//17
f 34//34 35//35 36//36
f 37//37 38//38 39//39
f 40//40 41//41 42//42
f 43//43 34//34 44//44
f 43//43 45//45 46//46
f 47//47 48//48 49//49
f 24//24 50//50 25//25
f 50//50 51//51 25//25
f 25//25 52//52 53//53
f 54//54 55//55 56//56
f 56//56 55//55 58//57
f 46//46 60//58 61//59
f 62//60 63//61 64//62
f 65//63 66//64 59//65
f 60//58 57//66 67//67
f 68//68 63//61 46//46
f 63//61 69//69 46//46
f 70//70 71//71 72//72
f 9//8 73//73 7//6
f 77//74 70//70 72//72
f 9//8 71//71 73//73
f 71//71 70//70 73//73
f 80//75 72//72 74//76
f 71//71 74//76 72//72
f 81//77 73//73 82//78
f 81//77 82//78 85//79
f 13//13 10//9 86//80
f 10//9 85//79 86//80
f 81//77 85//79 11//11
f 85//79 10//9 11//11
f 87//81 88//82 89//83
f 7//6 81//77 11//11
f 7//6 11//11 3//10
f 7//6 3//10 8//7
f 90//84 1//5 22//22
f 1//5 20//20 22//22
f 91//85 22//22 20//20
f 19//19 91//85 20//20
f 92//86 65//63 93//87
f 21//21 90//84 22//22
f 65//63 64//62 66//64
f 64//62 92//86 47//47
f 12//12 69//69 18//18
f 38//38 37//37 94//88
f 95//89 57//66 96//90
f 95//89 44//44 42//42
f 38//38 94//88 40//40
f 35//35 97//91 98//92
f 28//28 99//93 29//29
f 28//28 30//30 98//92
f 43//43 14//14 97//91
f 34//34 43//43 97//91
f 14//14 13//13 16//16
f 23//23 100//94 101//95
f 21//21 102//96 90//84
f 19//19 4//1 18//18
f 101//95 100//94 103//97
f 22//22 91//85 23//23
f 51//51 104//98 52//52
f 52//52 104//98 53//53
f 107//99 25//25 53//53
f 47//47 92//86 48//48
f 108//100 104//98 49//49
f 63//61 62//60 69//69
f 48//48 109//101 49//49
f 93//87 108//100 109//101
f 104//98 108//100 110//102
f 108//100 93//87 110//102
f 93//87 109//101 48//48
f 24//24 111//103 50//50
f 65//63 59//65 93//87
f 62//60 111//103 69//69
f 65//63 92//86 64//62
f 62//60 64//62 47//47
f 50//50 111//103 51//51
f 111//103 62//60 51//51
f 69//69 24//24 18//18
f 47//47 104//98 51//51
f 104//98 47//47 49//49
f 47//47 51//51 62//60
f 64//62 63//61 66//64
f 69//69 111//103 24//24
f 59//65 66//64 58//57
f 56//56 66//64 68//68
f 66//64 63//61 68//68
f 46//46 61//59 68//68
f 66//64 56//56 58//57
f 68//68 54//54 56//56
f 69//69 12//12 46//46
f 54//54 68//68 67//67
f 68//68 61//59 60//58
f 67//67 57//66 54//54
f 45//45 60//58 46//46
f 43//43 44//44 45//45
f 96//90 45//45 44//44
f 57//66 45//45 96//90
f 44//44 34//34 112//104
f 35//35 34//34 97//91
f 35//35 42//42 36//36
f 40//40 35//35 98//92
f 44//44 95//89 96//90
f 95//89 42//42 41//41
f 37//37 95//89 41//41
f 35//35 40//40 42//42
f 42//42 34//34 36//36
f 30//30 38//38 98//92
f 38//38 30//30 39//39
f 31//31 33//33 30//30
f 37//37 41//41 94//88
f 41//41 40//40 94//88
f 98//92 38//38 40//40
f 27//27 31//31 30//30
f 31//31 29//29 113//105
f 31//31 27//27 29//29
f 33//33 32//32 88//82
f 89//83 32//32 31//31
f 32//32 89//83 88//82
f 115//106 114//107 89//83
f 113//105 82//78 31//31
f 116//108 82//78 117//109
f 116//108 117//109 118//110
f 118//110 119//111 115//106
f 121//112 118//110 117//109
f 117//109 82//78 122//113
f 115//106 119//111 120//114
f 121//112 124//115 125//116
f 120//114 119//111 76//117
f 124//115 121//112 117//109
f 82//78 126//118 122//113
f 73//73 126//118 82//78
f 124//115 122//113 126//118
f 73//73 70//70 126//118
f 72//72 79//119 78//120
f 52//52 25//25 51//51
f 107//99 26//26 25//25
f 109//101 108//100 49//49
f 100//94 91//85 26//26
f 128//121 100//94 26//26
f 91//85 24//24 26//26
f 48//48 92//86 93//87
f 57//66 55//55 54//54
f 67//67 68//68 60//58
f 12//12 14//14 46//46
f 14//14 43//43 46//46
f 57//66 60//58 45//45
f 129//122 130//123 17//17
f 129//122 85//79 113//105
f 134//124 79//119 135//125
f 136//126 137//127 138//128
f 136//126 139//129 140//130
f 80//75 141//131 79//119
f 142//132 132//133 143//134
f 138//128 137//127 125//116
f 144//135 145//136 146//137
f 154//138 150//139 155//140
f 145//136 158//141 146//137
f 160//142 161//143 105//144
f 160//142 163//145 161//143
f 164//146 163//145 165//147
f 158//141 166//148 167//149
f 168//150 160//142 169//151
f 158//141 165//147 166//148
f 165//147 163//145 168//150
f 163//145 160//142 168//150
f 170//152 162//153 164//146
f 161//143 163//145 162//153
f 171//154 141//131 133//155
f 172//156 173//157 174//158
f 166//148 148//159 167//149
f 147//160 153//161 175//162
f 176//163 177//164 178//165
f 140//130 179//166 180//167
f 171//154 181//168 141//131
f 179//166 137//127 180//167
f 183//169 184//170 172//156
f 181//168 134//124 141//131
f 166//148 185//171 173//157
f 156//172 145//136 157//173
f 187//174 136//126 178//165
f 72//72 80//75 79//119
f 77//74 72//72 78//120
f 79//119 141//131 135//125
f 78//120 79//119 127//175
f 103//97 155//140 188//176
f 189//177 154//138 155//140
f 175//162 149//178 189//177
f 190//179 155//140 150//139
f 150//139 154//138 149//178
f 80//75 133//155 141//131
f 189//177 155//140 103//97
f 168//150 191//180 185//171
f 185//171 195//181 174//158
f 187//174 178//165 196//182
f 168//150 169//151 192//183
f 160//142 192//183 169//151
f 165//147 185//171 166//148
f 136//126 187//174 139//129
f 174//158 173//157 185//171
f 184//170 166//148 173//157
f 176//163 181//168 171//154
f 176//163 178//165 181//168
f 148//159 166//148 184//170
f 167//149 147//160 175//162
f 147//160 167//149 148//159
f 141//131 134//124 182//184
f 181//168 178//165 134//124
f 136//126 134//124 178//165
f 167//149 175//162 189//177
f 175//162 153//161 149//178
f 189//177 149//178 154//138
f 81//77 7//6 73//73
f 150//139 106//185 190//179
f 106//185 101//95 190//179
f 101//95 103//97 190//179
f 155//140 190//179 188//176
f 190//179 103//97 188//176
f 189//177 103//97 167//149
f 23//23 91//85 100//94
f 21//21 23//23 106//185
f 128//121 103//97 100//94
f 23//23 101//95 106//185
f 146//137 158//141 197//186
f 24//24 91//85 18//18
f 91//85 19//19 18//18
f 17//17 16//16 13//13
f 113//105 85//79 82//78
f 86//80 85//79 129//122
f 86//80 129//122 13//13
f 136//126 79//119 134//124
f 107//99 128//121 26//26
f 53//53 104//98 146//137
f 128//121 107//99 53//53
f 198//187 144//135 104//98
f 144//135 146//137 104//98
f 145//136 144//135 157//173
f 103//97 128//121 197//186
f 128//121 53//53 197//186
f 146//137 197//186 53//53
f 145//136 156//172 170//152
f 145//136 170//152 164//146
f 167//149 103//97 197//186
f 158//141 145//136 164//146
f 158//141 164//146 165//147
f 158//141 167//149 197//186
f 163//145 164//146 162//153
f 178//165 177//164 196//182
f 168//150 185//171 165//147
f 186//188 140//130 139//129
f 142//132 179//166 186//188
f 132//133 137//127 143//134
f 199//189 196//182 200//190
f 136//126 140//130 180//167
f 193//191 199//189 194//192
f 137//127 179//166 143//134
f 179//166 142//132 143//134
f 199//189 139//129 187//174
f 168//150 192//183 191//180
f 183//169 172//156 202//193
f 192//183 160//142 105//144
f 185//171 191//180 195//181
f 139//129 199//189 203//194
f 137//127 132//133 125//116
f 196//182 201//195 200//190
f 140//130 186//188 179//166
f 172//156 174//158 204//196
f 186//188 139//129 203//194
f 199//189 193//191 203//194
f 174//158 195//181 204//196
f 201//195 194//192 200//190
f 194//192 199//189 200//190
f 177//164 201//195 196//182
f 196//182 199//189 187//174
f 172//156 205//197 202//193
f 205//197 195//181 191//180
f 195//181 205//197 204//196
f 205//197 172//156 204//196
f 184//170 173//157 172//156
f 127//175 138//128 125//116
f 136//126 138//128 127//175
f 79//119 136//126 127//175
f 137//127 136//126 180//167
f 124//115 70//70 127//175
f 125//116 132//133 206//198
f 132//133 131//199 206//198
f 77//74 127//175 70//70
f 125//116 124//115 127//175
f 76//117 206//198 131//199
f 70//70 124//115 126//118
f 207//200 206//198 76//117
f 124//115 117//109 122//113
f 121//112 207//200 119//111
f 118//110 121//112 119//111
f 76//117 119//111 207//200
f 116//108 115//106 89//83
f 82//78 116//108 31//31
f 116//108 89//83 31//31
f 115//106 116//108 118//110
f 121//112 125//116 207//200
f 125//116 206//198 207//200
f 89//83 114//107 87//81
f 99//93 208//201 29//29
f 28//28 208//201 99//93
f 29//29 130//123 113//105
f 17//17 130//123 208//201
f 130//123 29//29 208//201
f 17//17 208//201 28//28
f 130//123 129//122 113//105
f 13//13 129//122 17//17
f 98//92 97//91 28//28
f 14//14 28//28 97//91
f 34//34 42//42 112//104
f 42//42 44//44 112//104
f 77//74 78//120 127//175
