# Blender v2.76 (sub 0) OBJ File: ''
# www.blender.org
mtllib fox3.mtl
o Cube.001
v 0.098818 1.446351 -0.065314
v 0.092914 1.624180 0.000000
v 0.168991 1.436139 0.000000
v -0.098818 1.446351 -0.065314
v -0.168991 1.436139 -0.000000
v -0.092914 1.624180 -0.000000
v -0.000000 1.271351 -0.170539
v -0.000000 1.373564 -0.134017
v 0.142832 1.316248 -0.122039
v 0.156405 1.094176 0.000000
v 0.094718 1.115258 -0.142790
v 0.147544 1.255486 -0.122068
v 0.223063 1.269354 0.000002
v 0.112897 1.300328 0.120716
v 0.113708 1.255359 0.146971
v 0.092794 1.115259 0.142789
v -0.000000 1.214839 0.264694
v -0.000000 1.311574 0.130414
v 0.007975 1.492457 -0.005321
v -0.000000 1.052614 -0.000000
v -0.000000 1.105232 -0.154590
v -0.000000 1.105229 0.166122
v -0.000000 1.492704 -0.005319
v -0.142832 1.316248 -0.122039
v -0.156405 1.094176 -0.000000
v -0.147544 1.255486 -0.122068
v -0.094718 1.115258 -0.142790
v -0.223063 1.269354 0.000002
v -0.112897 1.300328 0.120716
v -0.113708 1.255359 0.146971
v -0.092794 1.115259 0.142789
v -0.007975 1.492457 -0.005321
vt 0.949549 0.871537
vt 0.951789 0.874262
vt 0.947333 0.877499
vt 0.942882 0.858114
vt 0.950069 0.862009
vt 0.942218 0.868054
vt 0.929831 0.869831
vt 0.932861 0.863043
vt 0.939023 0.867108
vt 0.937508 0.873871
vt 0.934901 0.883573
vt 0.931128 0.883171
vt 0.923483 0.876599
vt 0.942876 0.816098
vt 0.947535 0.814544
vt 0.947535 0.820387
vt 0.934501 0.891860
vt 0.957986 0.872959
vt 0.922083 0.863898
vt 0.931294 0.857547
vt 0.916895 0.875018
vt -0.100415 0.089089
vt 0.820033 -0.221211
vt 0.268676 1.106559
vt 0.942519 0.819413
vt 0.922443 0.891860
vt 0.958475 0.872587
vt 0.915320 1.063189
vt 0.865355 -0.224093
vt 0.000000 0.000000
vn 0.676300 0.273600 -0.683900
vn -0.676300 0.273600 -0.683900
vn 0.209300 0.329000 -0.920800
vn 0.869900 -0.266400 -0.415100
vn 0.845200 0.065800 -0.530400
vn 0.734600 0.351900 0.580100
vn 0.895400 -0.146200 0.420500
vn 0.314200 0.021900 -0.949100
vn 0.735100 -0.129600 0.665400
vn 0.123500 0.502000 0.856000
vn -0.072400 0.734800 -0.674400
vn 0.139000 -0.937500 -0.319100
vn 0.176200 -0.938400 0.297200
vn 0.187300 0.608300 0.771300
vn -0.414000 0.301700 -0.858800
vn 0.314400 0.024800 -0.949000
vn 0.823100 -0.313200 -0.473700
vn 0.848500 0.275100 -0.452100
vn 0.746800 0.242100 0.619400
vn 0.779500 -0.296600 0.551700
vn 0.132900 -0.094700 -0.986600
vn 0.250900 -0.647300 0.719800
vn 0.301300 0.773700 0.557300
vn -0.038500 -0.015600 0.999100
vn 0.022600 0.733600 -0.679200
vn 0.255100 0.457700 -0.851800
vn 0.634400 0.479100 -0.606700
vn 0.248900 -0.936800 -0.245900
vn 0.248700 -0.936000 0.249000
vn 0.127300 0.591700 0.796000
vn 0.018800 0.599600 0.800100
vn -0.209300 0.329000 -0.920800
vn -0.869900 -0.266400 -0.415100
vn -0.845200 0.065800 -0.530400
vn -0.734600 0.351900 0.580100
vn -0.895400 -0.146200 0.420500
vn -0.314200 0.021900 -0.949100
vn -0.735100 -0.129600 0.665400
vn -0.123500 0.502000 0.856000
vn 0.072400 0.734800 -0.674400
vn -0.139000 -0.937500 -0.319100
vn -0.176200 -0.938400 0.297200
vn -0.187300 0.608300 0.771300
vn 0.414000 0.301700 -0.858800
vn -0.314400 0.024800 -0.949000
vn -0.823100 -0.313200 -0.473700
vn -0.848500 0.275100 -0.452100
vn -0.746800 0.242100 0.619400
vn -0.779500 -0.296600 0.551700
vn -0.132900 -0.094700 -0.986600
vn -0.250900 -0.647300 0.719800
vn -0.301300 0.773700 0.557300
vn 0.038500 -0.015600 0.999100
vn -0.022600 0.733600 -0.679200
vn -0.255100 0.457700 -0.851800
vn -0.634400 0.479100 -0.606700
vn -0.248900 -0.936800 -0.245900
vn -0.248700 -0.936000 0.249000
vn -0.127300 0.591700 0.796000
vn -0.018800 0.599600 0.800100
vn 0.618800 0.250300 0.744600
vn -0.618800 0.250300 0.744600
usemtl Material.003
s off
f 1/1/1 2/2/1 3/3/1
f 4/1/2 5/3/2 6/2/2
s 1
f 7/4/3 8/5/3 9/6/3
f 10/7/4 11/8/4 12/9/4
f 13/10/5 12/9/5 9/6/5
f 14/11/6 15/12/6 13/10/6
f 15/12/7 16/13/7 10/7/7
f 7/4/8 12/9/8 11/8/8
f 16/14/9 15/15/9 17/16/9
f 15/12/10 14/11/10 18/17/10
f 1/1/11 8/5/11 19/18/11
f 20/19/12 21/20/12 11/8/12
f 16/13/13 22/21/13 20/19/13
f 3/22/14 19/23/14 14/24/14
f 2/2/15 1/1/15 19/18/15
f 12/9/16 7/4/16 9/6/16
f 13/10/17 10/7/17 12/9/17
f 3/3/18 13/10/18 9/6/18
f 3/3/19 14/11/19 13/10/19
f 13/10/20 15/12/20 10/7/20
f 21/20/21 7/4/21 11/8/21
f 22/25/22 16/14/22 17/16/22
f 17/26/23 15/12/23 18/17/23
f 3/3/24 2/2/24 19/18/24
f 23/27/25 19/18/25 8/5/25
f 9/6/26 8/5/26 1/1/26
f 1/1/27 3/3/27 9/6/27
f 10/7/28 20/19/28 11/8/28
f 10/7/29 16/13/29 20/19/29
f 18/28/30 14/24/30 19/23/30
f 19/23/31 23/29/31 18/28/31
f 7/4/32 24/6/32 8/5/32
f 25/7/33 26/9/33 27/8/33
f 28/10/34 24/6/34 26/9/34
f 29/11/35 28/10/35 30/12/35
f 30/12/36 25/7/36 31/13/36
f 7/4/37 27/8/37 26/9/37
f 31/14/38 17/16/38 30/15/38
f 30/12/39 18/17/39 29/11/39
f 4/1/40 32/18/40 8/5/40
f 20/19/41 27/8/41 21/20/41
f 31/13/42 20/19/42 22/21/42
f 5/22/43 29/24/43 32/23/43
f 6/2/44 32/18/44 4/1/44
f 26/9/45 24/6/45 7/4/45
f 28/10/46 26/9/46 25/7/46
f 5/3/47 24/6/47 28/10/47
f 5/3/48 28/10/48 29/11/48
f 28/10/49 25/7/49 30/12/49
f 21/20/50 27/8/50 7/4/50
f 22/25/51 17/16/51 31/14/51
f 17/26/52 18/17/52 30/12/52
f 5/3/53 32/18/53 6/2/53
f 23/27/54 8/5/54 32/18/54
f 24/6/55 4/1/55 8/5/55
f 4/1/56 24/6/56 5/3/56
f 25/7/57 27/8/57 20/19/57
f 25/7/58 20/19/58 31/13/58
f 18/28/59 32/23/59 29/24/59
f 32/23/60 18/28/60 23/29/60
usemtl Material.003_NONE
f 1/30/61 2/30/61 19/30/61 3/30/61
f 4/30/62 5/30/62 32/30/62 6/30/62
