# Blender v2.76 (sub 0) OBJ File: ''
# www.blender.org
mtllib foxz.mtl
o Cone
v 0.029097 0.283231 -0.499217
v 0.110611 0.203655 -0.443497
v 0.068803 0.172202 -0.494794
v 0.025440 0.214535 -0.524436
v -0.026239 0.179013 -0.499563
v 0.017125 0.136680 -0.469921
v 0.013467 0.136883 -0.396743
v -0.068047 0.216459 -0.452462
v 0.226825 0.882279 0.086229
v 0.379244 0.882279 0.086229
v 0.379244 0.729860 0.086229
v 0.226825 0.729860 0.086229
v 0.379244 0.882279 0.238648
v 0.379244 0.729860 0.238648
v 0.226825 0.882279 0.238648
v 0.226825 0.729860 0.238648
v -0.382850 0.882279 0.086229
v -0.230431 0.882279 0.086229
v -0.230431 0.729860 0.086229
v -0.382850 0.729860 0.086229
v -0.230431 0.882279 0.238648
v -0.230431 0.729860 0.238648
v -0.382850 0.882279 0.238648
v -0.382850 0.729860 0.238648
v 0.025971 0.427918 -0.230286
v 0.074880 0.380172 -0.196855
v -0.032315 0.387854 -0.202234
v 0.016593 0.340109 -0.168802
v 0.200000 0.389209 0.000000
v 0.200000 0.989209 -0.000000
v 0.100000 0.989209 0.173205
v 0.100000 0.389209 0.173205
v -0.100000 0.989209 0.173205
v -0.100000 0.389209 0.173205
v -0.200000 0.989209 -0.000000
v -0.200000 0.389209 -0.000000
v -0.100000 0.989209 -0.173205
v -0.100000 0.389209 -0.173205
v 0.100000 0.989209 -0.173205
v 0.100000 0.389209 -0.173205
vn 0.686800 0.218000 -0.693400
vn -0.000000 -0.573600 -0.819200
vn -0.686800 -0.726100 -0.032300
vn 0.576300 -0.816700 0.031100
vn -0.576300 0.308500 -0.756800
vn 0.866000 0.000000 0.500000
vn -0.000000 0.000000 1.000000
vn -0.866000 0.000000 0.500000
vn -0.866000 -0.000000 -0.500000
vn 0.000000 1.000000 0.000000
vn 0.866000 -0.000000 -0.500000
vn 0.000000 -0.000000 -1.000000
vn -0.000000 -1.000000 0.000000
vn 1.000000 0.000000 0.000000
vn -1.000000 0.000000 -0.000000
vn 0.763400 0.572500 -0.299100
vn -0.000000 0.573600 0.819200
vn -0.763400 -0.476900 0.435700
vn 0.640600 -0.577500 0.506100
vn -0.640600 0.673100 -0.369600
usemtl Material.002
s 1
f 1//1 2//1 3//1 4//1
f 5//2 4//2 3//2 6//2
f 7//3 8//3 5//3 6//3
f 2//4 7//4 6//4 3//4
f 8//5 1//5 4//5 5//5
usemtl Material.004
f 29//6 30//6 31//6 32//6
f 32//7 31//7 33//7 34//7
f 34//8 33//8 35//8 36//8
f 36//9 35//9 37//9 38//9
f 31//10 30//10 39//10 37//10 35//10 33//10
f 40//11 39//11 30//11 29//11
f 38//12 37//12 39//12 40//12
f 29//13 32//13 34//13 36//13 38//13 40//13
usemtl Material.001_NONE
f 9//12 10//12 11//12 12//12
f 10//14 13//14 14//14 11//14
f 13//7 15//7 16//7 14//7
f 15//15 9//15 12//15 16//15
f 12//13 11//13 14//13 16//13
f 15//10 13//10 10//10 9//10
f 17//12 18//12 19//12 20//12
f 18//14 21//14 22//14 19//14
f 21//7 23//7 24//7 22//7
f 23//15 17//15 20//15 24//15
f 20//13 19//13 22//13 24//13
f 23//10 21//10 18//10 17//10
f 1//16 25//16 26//16 2//16
f 25//17 27//17 28//17 26//17
f 27//18 8//18 7//18 28//18
f 7//19 2//19 26//19 28//19
f 27//20 25//20 1//20 8//20
