# Blender v2.76 (sub 0) OBJ File: 'bar1.blend'
# www.blender.org
mtllib Plane.018.mtl
o Plane.012_Plane.018
v 3.309516 0.384018 -3.917144
v 3.309516 0.384018 -3.009160
v 3.309516 -0.927549 -3.917144
v 3.309516 -0.927549 -3.009160
v 0.266853 0.808979 0.000000
v -0.933533 0.808979 -0.000000
v 0.266853 -0.933533 0.000000
v -0.933533 -0.933533 -0.000000
v -10.568614 0.933533 -0.313002
v -10.568614 0.933533 -3.217904
v -10.568614 -0.933532 -0.313002
v -10.568614 -0.933532 -3.217904
v -10.568614 0.933533 -13.697828
v -10.568614 0.933533 -15.564894
v -10.568614 -0.933533 -13.697828
v -10.568614 -0.933533 -15.564894
v -10.568614 0.554417 -10.238546
v -10.568614 0.554417 -13.411484
v -10.568614 -0.933533 -10.238546
v -10.568614 -0.933533 -13.411484
v 3.309516 0.384018 -5.056540
v 3.309516 0.384018 -4.148555
v 3.309516 -0.927549 -5.056540
v 3.309516 -0.927549 -4.148555
v 2.558779 0.586663 -0.010715
v 0.691714 0.586663 -0.010716
v 2.558779 -0.927549 -0.010715
v 0.691714 -0.927549 -0.010716
v 3.309516 0.384018 -7.212705
v 3.309516 0.384018 -5.242582
v 3.309516 -0.927549 -7.212705
v 3.309516 -0.927549 -5.242582
v 3.309516 0.384018 -2.810194
v 3.309516 0.384018 -0.943129
v 3.309516 -0.927549 -2.810194
v 3.309516 -0.927549 -0.943129
v -10.568614 0.933533 -8.453475
v -10.568614 0.933533 -9.905488
v -10.568614 -0.933533 -8.453475
v -10.568614 -0.933533 -9.905488
vt 1.000000 0.000000
vt 0.000000 0.000000
vt 0.000000 1.000000
vt 1.000000 1.000000
vn 0.000000 0.000000 -1.000000
vn -1.000000 0.000000 0.000000
vn 1.000000 0.000000 0.000000
usemtl Material.012
s off
f 7/1/1 8/2/1 6/3/1
f 5/4/1 7/1/1 6/3/1
usemtl painting_6
f 3/2/2 4/1/2 2/4/2
f 1/3/2 3/2/2 2/4/2
usemtl painting_2.001
f 11/1/3 12/2/3 10/3/3
f 9/4/3 11/1/3 10/3/3
usemtl painting_3
f 15/1/3 16/2/3 14/3/3
f 13/4/3 15/1/3 14/3/3
usemtl bar1.000
f 17/4/3 19/1/3 20/2/3
f 18/3/3 17/4/3 20/2/3
usemtl painting_5
f 23/2/2 24/1/2 22/4/2
f 21/3/2 23/2/2 22/4/2
usemtl painting_2
f 27/1/1 28/2/1 26/3/1
f 25/4/1 27/1/1 26/3/1
usemtl painting_4
f 31/2/2 32/1/2 30/4/2
f 29/3/2 31/2/2 30/4/2
usemtl painting_1
f 35/2/2 36/1/2 34/4/2
f 33/3/2 35/2/2 34/4/2
usemtl Material.002
f 39/1/3 40/2/3 38/3/3
f 37/4/3 39/1/3 38/3/3
