# Blender v2.76 (sub 0) OBJ File: 'bar1.blend'
# www.blender.org
mtllib Plane.004.mtl
o Plane.003_Plane.004
v 0.028987 1.952669 -0.748786
v 0.028987 1.952669 0.751214
v 0.028987 1.312796 -0.748786
v 0.028987 1.312796 0.751214
v 0.274959 1.877478 4.466362
v 1.774959 1.877478 4.466362
v 0.274959 1.237605 4.466362
v 1.774959 1.237605 4.466362
v -0.000000 1.000000 0.750000
v 0.000000 1.000000 -0.750000
v -0.000000 -1.000000 0.750000
v 0.000000 -1.000000 -0.750000
v 0.273546 1.000000 4.466362
v 1.773546 1.000000 4.466362
v 0.273546 -1.000000 4.466362
v 1.773546 -1.000000 4.466362
vn 1.000000 -0.000000 0.000000
vn 0.000000 0.000000 -1.000000
usemtl Material.005
s off
f 2//1 4//1 3//1
f 6//2 8//2 7//2
f 11//1 12//1 10//1
f 14//2 16//2 15//2
f 1//1 2//1 3//1
f 5//2 6//2 7//2
f 9//1 11//1 10//1
f 13//2 14//2 15//2
