# Blender v2.76 (sub 0) OBJ File: 'my buildingQ.blend'
# www.blender.org
mtllib ID33.002.mtl
o SketchUp.008_ID33.002
v 12.000000 0.000000 -2.000000
v 0.000000 0.000000 0.000000
v 0.000000 0.000000 -2.000000
v 12.000000 0.000000 0.000000
v 12.000000 0.000000 0.000000
v 12.000000 0.000000 -2.000000
v 0.000000 0.000000 0.000000
v 0.000000 0.000000 -2.000000
v 0.000000 0.000000 0.000000
v 12.000000 0.000000 0.000000
v 0.000000 0.000000 -2.000000
v 12.000000 0.000000 -2.000000
v 12.000000 0.000000 -12.000000
v 0.000000 0.000000 -10.000001
v 0.000000 0.000000 -12.000000
v 12.000000 0.000000 -10.000001
v 12.000000 0.000000 -10.000001
v 12.000000 0.000000 -12.000000
v 0.000000 0.000000 -10.000001
v 0.000000 0.000000 -12.000000
v 12.000000 0.000000 -12.000000
v 12.000000 0.000000 -10.000001
v 0.000000 0.000000 -10.000001
v 0.000000 0.000000 -12.000000
v 12.000000 0.000000 -10.000001
v 0.000000 0.000000 -2.000000
v 0.000000 0.000000 -10.000001
v 12.000000 0.000000 -2.000000
v 12.000000 0.000000 -2.000000
v 12.000000 0.000000 -10.000001
v 0.000000 0.000000 -2.000000
v 0.000000 0.000000 -10.000001
v 12.000000 0.000000 -10.000001
v 0.000000 0.000000 -10.000001
v 12.000000 0.000000 -2.000000
v 0.000000 0.000000 -2.000000
v 36.000000 0.000000 -2.000000
v 24.000000 0.000000 0.000000
v 24.000000 0.000000 -2.000000
v 36.000000 0.000000 0.000000
v 36.000000 0.000000 0.000000
v 36.000000 0.000000 -2.000000
v 24.000000 0.000000 0.000000
v 24.000000 0.000000 -2.000000
v 24.000000 0.000000 0.000000
v 36.000000 0.000000 0.000000
v 24.000000 0.000000 -2.000000
v 36.000000 0.000000 -2.000000
v 36.000000 0.000000 -12.000000
v 24.000000 0.000000 -10.000001
v 24.000000 0.000000 -12.000000
v 36.000000 0.000000 -10.000001
v 36.000000 0.000000 -10.000001
v 36.000000 0.000000 -12.000000
v 24.000000 0.000000 -10.000001
v 24.000000 0.000000 -12.000000
v 36.000000 0.000000 -12.000000
v 36.000000 0.000000 -10.000001
v 24.000000 0.000000 -10.000001
v 24.000000 0.000000 -12.000000
v 36.000000 0.000000 -10.000001
v 24.000000 0.000000 -2.000000
v 24.000000 0.000000 -10.000001
v 36.000000 0.000000 -2.000000
v 36.000000 0.000000 -2.000000
v 36.000000 0.000000 -10.000001
v 24.000000 0.000000 -2.000000
v 24.000000 0.000000 -10.000001
v 36.000000 0.000000 -10.000001
v 24.000000 0.000000 -10.000001
v 36.000000 0.000000 -2.000000
v 24.000000 0.000000 -2.000000
v 24.000000 0.000000 -2.000000
v 12.000000 0.000000 0.000000
v 12.000000 0.000000 -2.000000
v 24.000000 0.000000 0.000000
v 24.000000 0.000000 0.000000
v 24.000000 0.000000 -2.000000
v 12.000000 0.000000 0.000000
v 12.000000 0.000000 -2.000000
v 12.000000 0.000000 0.000000
v 24.000000 0.000000 0.000000
v 12.000000 0.000000 -2.000000
v 24.000000 0.000000 -2.000000
v 24.000000 0.000000 -12.000000
v 12.000000 0.000000 -10.000001
v 12.000000 0.000000 -12.000000
v 24.000000 0.000000 -10.000001
v 24.000000 0.000000 -10.000001
v 24.000000 0.000000 -12.000000
v 12.000000 0.000000 -10.000001
v 12.000000 0.000000 -12.000000
v 24.000000 0.000000 -12.000000
v 24.000000 0.000000 -10.000001
v 12.000000 0.000000 -10.000001
v 12.000000 0.000000 -12.000000
v 24.000000 0.000000 -10.000001
v 12.000000 0.000000 -2.000000
v 12.000000 0.000000 -10.000001
v 24.000000 0.000000 -2.000000
v 24.000000 0.000000 -2.000000
v 24.000000 0.000000 -10.000001
v 12.000000 0.000000 -2.000000
v 12.000000 0.000000 -10.000001
v 24.000000 0.000000 -10.000001
v 12.000000 0.000000 -10.000001
v 24.000000 0.000000 -2.000000
v 12.000000 0.000000 -2.000000
vt 0.000000 0.000000
vt -9.842520 0.000000
vt -9.842520 1.640420
vt 0.000000 1.640420
vn 0.000000 -1.000000 0.000000
vn 0.000000 1.000000 0.000000
usemtl Concrete_Block_8x8_Gray
s off
f 1/1/1 2/1/1 3/1/1
f 2/1/1 1/1/1 4/1/1
f 5/2/2 6/3/2 7/1/2
f 8/4/2 7/1/2 6/3/2
f 13/1/1 14/1/1 15/1/1
f 14/1/1 13/1/1 16/1/1
f 17/1/2 18/1/2 19/1/2
f 20/1/2 19/1/2 18/1/2
f 25/1/1 26/1/1 27/1/1
f 26/1/1 25/1/1 28/1/1
f 37/1/1 38/1/1 39/1/1
f 38/1/1 37/1/1 40/1/1
f 41/2/2 42/3/2 43/1/2
f 44/4/2 43/1/2 42/3/2
f 49/1/1 50/1/1 51/1/1
f 50/1/1 49/1/1 52/1/1
f 53/1/2 54/1/2 55/1/2
f 56/1/2 55/1/2 54/1/2
f 61/1/1 62/1/1 63/1/1
f 62/1/1 61/1/1 64/1/1
f 73/1/1 74/1/1 75/1/1
f 74/1/1 73/1/1 76/1/1
f 77/2/2 78/3/2 79/1/2
f 80/4/2 79/1/2 78/3/2
f 85/1/1 86/1/1 87/1/1
f 86/1/1 85/1/1 88/1/1
f 89/1/2 90/1/2 91/1/2
f 92/1/2 91/1/2 90/1/2
f 97/1/1 98/1/1 99/1/1
f 98/1/1 97/1/1 100/1/1
usemtl Blacktop_Old_01
f 29/1/2 30/1/2 31/1/2
f 32/1/2 31/1/2 30/1/2
f 65/1/2 66/1/2 67/1/2
f 68/1/2 67/1/2 66/1/2
f 101/1/2 102/1/2 103/1/2
f 104/1/2 103/1/2 102/1/2
l 9 10
l 11 9
l 11 12
l 10 12
l 21 22
l 22 23
l 23 24
l 24 21
l 33 34
l 35 33
l 36 35
l 34 36
l 45 46
l 47 45
l 47 48
l 46 48
l 57 58
l 58 59
l 59 60
l 60 57
l 69 70
l 71 69
l 72 71
l 70 72
l 81 82
l 83 81
l 83 84
l 82 84
l 93 94
l 94 95
l 95 96
l 96 93
l 105 106
l 107 105
l 108 107
l 106 108
